<svg width="600" height="400" xmlns="http://www.w3.org/2000/svg">
  <!-- Background -->
  <rect width="600" height="400" fill="#f9fafb" rx="20" ry="20"/>
  
  <!-- Dashboard Elements -->
  <rect x="50" y="50" width="500" height="300" fill="#ffffff" rx="10" ry="10" stroke="#e5e7eb" stroke-width="2"/>
  
  <!-- Header -->
  <rect x="70" y="70" width="460" height="50" fill="#6366f1" rx="8" ry="8"/>
  <circle cx="95" cy="95" r="15" fill="#ffffff"/>
  <rect x="125" y="85" width="120" height="20" fill="#ffffff" rx="4" ry="4"/>
  <rect x="400" y="85" width="100" height="20" fill="#ffffff" rx="4" ry="4" opacity="0.7"/>
  
  <!-- Charts -->
  <rect x="70" y="140" width="220" height="180" fill="#f3f4f6" rx="8" ry="8"/>
  <circle cx="180" cy="200" r="60" fill="none" stroke="#6366f1" stroke-width="20" stroke-dasharray="251.2 377" transform="rotate(-90 180 200)"/>
  <circle cx="180" cy="200" r="60" fill="none" stroke="#818cf8" stroke-width="20" stroke-dasharray="125.6 377" transform="rotate(0 180 200)"/>
  <text x="180" y="210" font-family="Arial" font-size="24" fill="#1f2937" text-anchor="middle">75%</text>
  
  <!-- Bar Chart -->
  <rect x="310" y="140" width="220" height="180" fill="#f3f4f6" rx="8" ry="8"/>
  <rect x="330" y="260" width="30" height="40" fill="#6366f1" rx="4" ry="4"/>
  <rect x="370" y="220" width="30" height="80" fill="#818cf8" rx="4" ry="4"/>
  <rect x="410" y="180" width="30" height="120" fill="#6366f1" rx="4" ry="4"/>
  <rect x="450" y="240" width="30" height="60" fill="#818cf8" rx="4" ry="4"/>
  <rect x="490" y="200" width="30" height="100" fill="#6366f1" rx="4" ry="4"/>
  
  <!-- Data Points -->
  <circle cx="330" cy="170" r="5" fill="#6366f1"/>
  <circle cx="370" cy="190" r="5" fill="#6366f1"/>
  <circle cx="410" cy="160" r="5" fill="#6366f1"/>
  <circle cx="450" cy="180" r="5" fill="#6366f1"/>
  <circle cx="490" cy="150" r="5" fill="#6366f1"/>
  <path d="M330,170 L370,190 L410,160 L450,180 L490,150" stroke="#6366f1" stroke-width="2" fill="none"/>
</svg>
